<svg width="24" height="24" viewBox="0 0 24 24" fill="none" xmlns="http://www.w3.org/2000/svg">
<path d="M11.9992 12.5998L15.8992 8.6998C16.0826 8.51647 16.3159 8.4248 16.5992 8.4248C16.8826 8.4248 17.1159 8.51647 17.2992 8.6998C17.4826 8.88314 17.5742 9.11647 17.5742 9.3998C17.5742 9.68314 17.4826 9.91647 17.2992 10.0998L12.6992 14.6998C12.5992 14.7998 12.4909 14.8706 12.3742 14.9123C12.2576 14.954 12.1326 14.9748 11.9992 14.9748C11.8659 14.9748 11.7409 14.954 11.6242 14.9123C11.5076 14.8706 11.3992 14.7998 11.2992 14.6998L6.69922 10.0998C6.51589 9.91647 6.42422 9.68314 6.42422 9.3998C6.42422 9.11647 6.51589 8.88314 6.69922 8.6998C6.88255 8.51647 7.11589 8.4248 7.39922 8.4248C7.68255 8.4248 7.91588 8.51647 8.09922 8.6998L11.9992 12.5998Z" fill="#1A1A1A"/>
</svg>
