<svg width="24" height="24" viewBox="0 0 24 24" fill="none" xmlns="http://www.w3.org/2000/svg">
<path d="M10.8027 18.2305C10.9243 18.4409 11.0991 18.6157 11.3095 18.7372C11.52 18.8587 11.7588 18.9227 12.0018 18.9227C12.2449 18.9227 12.4836 18.8587 12.6941 18.7372C12.9046 18.6157 13.0794 18.4409 13.2009 18.2305" stroke="black" stroke-width="1.6" stroke-linecap="round" stroke-linejoin="round"/>
<path d="M5.95041 14.3028C5.85997 14.402 5.80029 14.5252 5.77862 14.6577C5.75695 14.7901 5.77423 14.9259 5.82836 15.0487C5.88249 15.1715 5.97113 15.2759 6.08351 15.3492C6.19589 15.4226 6.32715 15.4617 6.46133 15.4618H17.5383C17.6724 15.4618 17.8037 15.4229 17.9162 15.3497C18.0286 15.2765 18.1174 15.1722 18.1716 15.0495C18.2259 14.9268 18.2434 14.791 18.2219 14.6585C18.2004 14.5261 18.1409 14.4028 18.0506 14.3035C17.1298 13.3544 16.1536 12.3457 16.1536 9.23099C16.1536 8.12933 15.716 7.07278 14.937 6.29378C14.158 5.51478 13.1015 5.07715 11.9998 5.07715C10.8981 5.07715 9.84158 5.51478 9.06258 6.29378C8.28358 7.07278 7.84595 8.12933 7.84595 9.23099C7.84595 12.3457 6.8691 13.3544 5.95041 14.3028Z" stroke="black" stroke-width="1.6" stroke-linecap="round" stroke-linejoin="round"/>
</svg>
