<svg width="24" height="24" viewBox="0 0 24 24" fill="none" xmlns="http://www.w3.org/2000/svg">
<path d="M12.364 10.9498L16.6067 6.7071C16.9972 6.31658 17.6303 6.31658 18.0209 6.70711C18.4114 7.09763 18.4114 7.73079 18.0209 8.12131L13.7782 12.364L18.0208 16.6066C18.4114 16.9971 18.4114 17.6303 18.0209 18.0208C17.6303 18.4113 16.9972 18.4113 16.6067 18.0208L12.364 13.7782L8.12132 18.0208C7.7308 18.4113 7.09764 18.4113 6.70712 18.0208C6.31659 17.6303 6.31659 16.9971 6.70712 16.6066L10.9498 12.364L6.70711 8.12132C6.31658 7.73079 6.31658 7.09763 6.70711 6.7071C7.09764 6.31658 7.7308 6.31658 8.12132 6.70711L12.364 10.9498Z" fill="black"/>
</svg>
