<svg width="532" height="36" viewBox="0 0 532 36" fill="none" xmlns="http://www.w3.org/2000/svg">
<rect width="532" height="36" fill="white"/>
<rect width="100" height="36" fill="white"/>
<path fill-rule="evenodd" clip-rule="evenodd" d="M51.7469 13.0288C51.7469 13.2861 51.6706 13.5376 51.5278 13.7516C51.385 13.9655 51.182 14.1323 50.9445 14.2307C50.7071 14.3292 50.4457 14.355 50.1936 14.3048C49.9415 14.2546 49.7099 14.1307 49.5282 13.9487C49.3464 13.7668 49.2226 13.535 49.1725 13.2826C49.1223 13.0302 49.1481 12.7686 49.2464 12.5309C49.3448 12.2932 49.5114 12.09 49.7251 11.9471C49.9389 11.8041 50.1901 11.7278 50.4472 11.7278C50.618 11.7273 50.7873 11.7606 50.9452 11.8258C51.1031 11.8909 51.2466 11.9868 51.3674 12.1077C51.4882 12.2286 51.5839 12.3722 51.649 12.5303C51.7141 12.6884 51.7474 12.8578 51.7469 13.0288ZM46.3851 15.6434V15.9652C46.1399 15.6995 45.8399 15.4903 45.506 15.3519C45.1721 15.2135 44.8122 15.1492 44.4511 15.1636C43.9337 15.158 43.4205 15.2574 42.9425 15.4559C42.4646 15.6544 42.0317 15.9477 41.6702 16.3183C41.3086 16.6889 41.0258 17.1289 40.8389 17.6119C40.652 18.0949 40.5648 18.6109 40.5826 19.1285C40.5642 19.6462 40.6509 20.1622 40.8373 20.6454C41.0238 21.1286 41.3061 21.569 41.6673 21.94C42.0285 22.3109 42.461 22.6047 42.9388 22.8037C43.4166 23.0027 43.9297 23.1026 44.4471 23.0976C44.8103 23.1143 45.1727 23.0492 45.5074 22.9071C45.8421 22.7649 46.1407 22.5494 46.3811 22.2764V22.6172C46.3806 22.6539 46.3874 22.6904 46.4012 22.7245C46.415 22.7585 46.4355 22.7895 46.4615 22.8154C46.4874 22.8414 46.5183 22.8619 46.5524 22.8758C46.5864 22.8896 46.6228 22.8964 46.6595 22.8959H48.2807V15.3515H46.6733C46.6001 15.3535 46.5305 15.3835 46.4787 15.4353C46.4269 15.4872 46.3969 15.5569 46.3949 15.6302L46.3851 15.6434ZM46.3851 20.468C46.1995 20.724 45.9557 20.932 45.6737 21.0748C45.3918 21.2176 45.08 21.2911 44.764 21.2892C43.4839 21.2892 42.5051 20.4876 42.5051 19.1285C42.5051 17.7695 43.4839 16.9679 44.764 16.9679C45.0792 16.9703 45.3896 17.0457 45.6708 17.1881C45.9521 17.3306 46.1965 17.5363 46.3851 17.7891V20.4726V20.468ZM49.4851 15.3641H51.4196V22.8918H49.4851V15.3515V15.3641ZM78.169 15.163C77.8079 15.1487 77.448 15.2129 77.1141 15.3513C76.7803 15.4897 76.4803 15.6989 76.235 15.9646V11.7399H74.3005V22.8907H75.921C75.9942 22.8887 76.0639 22.8586 76.1157 22.8068C76.1674 22.755 76.1974 22.6853 76.1994 22.612V22.2712C76.4415 22.5411 76.7398 22.7546 77.0733 22.8965C77.4068 23.0383 77.7673 23.1052 78.1294 23.0924C78.6464 23.0964 79.1589 22.9958 79.6361 22.7968C80.1133 22.5977 80.5455 22.3043 80.9067 21.9341C81.268 21.5638 81.5508 21.1244 81.7383 20.6421C81.9259 20.1599 82.0142 19.6447 81.998 19.1274C82.0147 18.61 81.9267 18.0946 81.7393 17.6121C81.552 17.1296 81.2692 16.69 80.9078 16.3197C80.5465 15.9493 80.1141 15.6559 79.6367 15.457C79.1592 15.2582 78.6465 15.158 78.1294 15.1624L78.169 15.163ZM77.8424 21.2702C77.526 21.2747 77.2132 21.2023 76.9309 21.0593C76.6486 20.9163 76.4051 20.7069 76.2213 20.4491V17.7649C76.4161 17.5189 76.662 17.3181 76.9418 17.1763C77.2217 17.0346 77.529 16.9552 77.8424 16.9438C79.1226 16.9438 80.1013 17.7454 80.1013 19.1044C80.1013 20.4634 79.1226 21.265 77.8424 21.265V21.2702ZM73.32 18.4281V22.912H71.3854V18.6522C71.3854 17.4092 70.9985 16.9099 69.9043 16.9099C69.6095 16.9202 69.32 16.9911 69.0538 17.1184C68.7877 17.2456 68.5505 17.4264 68.3572 17.6494V22.8924H66.4227V15.3515H67.9428C68.016 15.3535 68.0856 15.3835 68.1374 15.4353C68.1892 15.4872 68.2192 15.5569 68.2212 15.6302V15.952C68.4881 15.6859 68.8068 15.4775 69.1574 15.3396C69.508 15.2017 69.8832 15.1373 70.2597 15.1503C71.0247 15.122 71.773 15.3786 72.3601 15.8704C73.041 16.4318 73.2999 17.1518 73.2999 18.4143L73.32 18.4281ZM61.7814 15.1641C61.4203 15.1498 61.0604 15.2141 60.7265 15.3525C60.3926 15.4909 60.0927 15.7001 59.8474 15.9658V11.741H57.9128V22.8907H59.534C59.6072 22.8887 59.6768 22.8586 59.7286 22.8068C59.7804 22.755 59.8103 22.6853 59.8124 22.612V22.2712C60.0549 22.5417 60.3538 22.7554 60.6881 22.8973C61.0223 23.0392 61.3836 23.1058 61.7464 23.0924C62.2634 23.0964 62.7758 22.9958 63.2531 22.7968C63.7303 22.5977 64.1625 22.3043 64.5237 21.9341C64.8849 21.5638 65.1678 21.1244 65.3553 20.6421C65.5428 20.1599 65.6311 19.6447 65.615 19.1274C65.635 18.6092 65.5493 18.0923 65.3632 17.6083C65.177 17.1243 64.8944 16.6833 64.5323 16.3123C64.1703 15.9412 63.7366 15.6479 63.2576 15.4502C62.7786 15.2525 62.2644 15.1546 61.7464 15.1624L61.7814 15.1641ZM61.4588 21.2702C61.1424 21.2747 60.8296 21.2023 60.5473 21.0593C60.2649 20.9163 60.0214 20.7069 59.8376 20.4491V17.7649C60.0325 17.5189 60.2783 17.3181 60.5582 17.1763C60.8381 17.0346 61.1453 16.9552 61.4588 16.9438C62.7389 16.9438 63.7177 17.7454 63.7177 19.1044C63.7177 20.4634 62.7389 21.265 61.4588 21.265V21.2702ZM56.2463 15.1618C56.5436 15.1524 56.8406 15.1863 57.1281 15.2624V17.0438C57.1281 17.0438 55.5207 16.5134 54.5287 17.6437V22.9102H52.5942V15.3515H54.2153C54.2885 15.3535 54.3581 15.3835 54.4099 15.4353C54.4617 15.4872 54.4917 15.5569 54.4937 15.6302V15.952C54.9524 15.4749 55.574 15.1887 56.2343 15.1503L56.2463 15.1618ZM36.3035 22.2097L36.0016 21.4897L35.5412 20.4669L35.5217 20.4473C34.1226 17.3954 32.6495 14.3781 31.1037 11.398L31.0417 11.283L30.5652 10.3234C30.3682 9.93049 30.1269 9.56147 29.8459 9.22354C29.5403 8.83795 29.1507 8.52731 28.7069 8.3153C28.2631 8.10328 27.7768 7.99549 27.2851 8.00014C26.7967 8.00176 26.3145 8.11001 25.8722 8.31733C25.4299 8.52466 25.0382 8.82608 24.7242 9.20056C24.45 9.54344 24.2092 9.91173 24.0049 10.3004L23.4636 11.3612C21.9165 14.3665 20.4228 17.4064 19.0422 20.4106L19.0227 20.4491C18.9078 20.7783 18.7442 21.1156 18.5818 21.4754C18.4811 21.6949 18.3805 21.9349 18.2798 22.1954C18.0246 22.8851 17.9422 23.627 18.0399 24.356C18.1475 25.0881 18.4438 25.7795 18.8996 26.3621C19.3554 26.9447 19.955 27.3985 20.6392 27.6786C21.1523 27.8945 21.7038 28.0037 22.2603 27.9998C22.4337 27.9969 22.6068 27.984 22.7787 27.9613C23.4844 27.8712 24.1647 27.6394 24.7787 27.2798C25.7114 26.723 26.5486 26.0196 27.2581 25.1967C27.9721 26.0151 28.8085 26.7178 29.7375 27.2798C30.3515 27.6395 31.0317 27.8713 31.7375 27.9613C31.9094 27.984 32.0825 27.9968 32.2558 27.9998C32.8126 28.0056 33.3645 27.8962 33.877 27.6786C34.5612 27.3985 35.1608 26.9447 35.6166 26.3621C36.0724 25.7795 36.3687 25.0881 36.4763 24.356C36.6237 23.6397 36.5605 22.896 36.2943 22.2149L36.3035 22.2097ZM27.2862 23.2516C26.207 21.8885 25.5066 20.6105 25.2667 19.5262C25.1687 19.1272 25.1476 18.7131 25.2047 18.3062C25.2443 18.0049 25.3542 17.7171 25.5256 17.4661C25.726 17.1877 25.9908 16.9621 26.2973 16.8084C26.6038 16.6547 26.9429 16.5775 27.2856 16.5835C27.6292 16.5703 27.9705 16.6439 28.2781 16.7975C28.5857 16.9512 28.8497 17.1799 29.0457 17.4627C29.2171 17.7136 29.327 18.0014 29.3666 18.3028C29.4239 18.7097 29.4029 19.1238 29.3046 19.5227C29.0647 20.5835 28.3649 21.846 27.2851 23.2481L27.2862 23.2516ZM35.2668 24.1922C35.1916 24.7048 34.9839 25.1888 34.6643 25.5963C34.3447 26.0038 33.9243 26.3207 33.4447 26.5155C32.9664 26.718 32.4442 26.794 31.9281 26.7362C31.3911 26.6697 30.8736 26.493 30.408 26.2173C29.5496 25.6985 28.7803 25.0448 28.1295 24.2813C29.4487 22.6585 30.2495 21.1783 30.5509 19.8555C30.681 19.2974 30.715 18.7212 30.6514 18.1517C30.5771 17.662 30.3919 17.1957 30.11 16.7886C29.793 16.3358 29.3697 15.9679 28.8773 15.7174C28.3849 15.4669 27.8385 15.3414 27.2862 15.352C26.7368 15.345 26.1937 15.4705 25.7029 15.7178C25.2121 15.9652 24.788 16.3271 24.4664 16.7731C24.1846 17.1802 23.9994 17.6464 23.9251 18.1362C23.8406 18.7049 23.8748 19.2851 24.0256 19.8399C24.3275 21.1605 25.1473 22.6626 26.4469 24.2853C25.8007 25.0534 25.0306 25.7078 24.1685 26.2213C23.7029 26.503 23.1839 26.685 22.6444 26.7557C22.1289 26.813 21.6072 26.744 21.1243 26.5546C20.6447 26.3597 20.2243 26.0429 19.9047 25.6354C19.5851 25.2279 19.3774 24.7439 19.3022 24.2313C19.239 23.708 19.3014 23.1771 19.4842 22.6827C19.5462 22.4815 19.6426 22.2954 19.7425 22.0437C19.882 21.7219 20.0445 21.3817 20.2029 21.0409L20.2224 21.0024C21.6036 18.0143 23.0812 14.9774 24.6255 12.0111L24.6829 11.8674L25.1628 10.9457C25.3185 10.628 25.512 10.3303 25.7391 10.0591C25.9363 9.82713 26.1815 9.64084 26.4577 9.5131C26.7339 9.38535 27.0345 9.31918 27.3387 9.31918C27.643 9.31918 27.9436 9.38535 28.2198 9.5131C28.496 9.64084 28.7412 9.82713 28.9384 10.0591C29.1541 10.3296 29.3371 10.6247 29.4837 10.9383L29.9636 11.86L30.021 11.9749C31.5411 14.9607 33.0268 18 34.404 20.9852V21.0047C34.5624 21.3265 34.7059 21.6863 34.8644 22.0075C34.9648 22.2477 35.0653 22.4488 35.1227 22.6465C35.2888 23.1448 35.3365 23.6751 35.2622 24.1951L35.2668 24.1922Z" fill="#A4A4A4"/>
<rect width="100" height="36" transform="translate(108)" fill="white"/>
<path d="M117.088 13.2575L116.301 16.154L120.805 13.241L117.859 24.2326L120.851 24.2351L125.203 8" fill="#A4A4A4"/>
<path d="M112.239 19.614L111 24.2349H117.132L119.642 14.8347L112.239 19.614ZM133.541 15.5458C133.391 16.1029 133.102 16.5121 132.671 16.7734C132.242 17.0342 131.639 17.1652 130.86 17.1652H128.387L129.255 13.9273H131.729C132.506 13.9273 133.04 14.0573 133.33 14.3221C133.62 14.5869 133.69 14.9916 133.541 15.5512M136.102 15.4813C136.416 14.3121 136.286 13.4127 135.711 12.7831C135.136 12.1585 134.128 11.8438 132.689 11.8438H127.169L123.846 24.2404H126.528L127.867 19.2438H129.626C130.021 19.2438 130.331 19.3087 130.558 19.4336C130.786 19.5635 130.919 19.7884 130.96 20.1132L131.439 24.2404H134.312L133.846 20.393C133.751 19.5336 133.358 19.0289 132.667 18.879C133.548 18.6242 134.286 18.1995 134.88 17.6099C135.471 17.0246 135.893 16.291 136.102 15.4863M142.62 19.8034C142.395 20.6428 142.051 21.2774 141.584 21.7221C141.118 22.1668 140.56 22.3866 139.91 22.3866C139.247 22.3866 138.798 22.1718 138.56 21.7371C138.323 21.3024 138.315 20.6728 138.535 19.8484C138.756 19.0239 139.109 18.3793 139.593 17.9147C140.078 17.45 140.645 17.2176 141.295 17.2176C141.945 17.2176 142.389 17.4425 142.614 17.8887C142.844 18.3369 142.849 18.9779 142.624 19.8124L142.62 19.8034ZM143.795 15.4163L143.46 16.6705C143.315 16.2208 143.033 15.861 142.618 15.5912C142.201 15.3264 141.685 15.1915 141.07 15.1915C140.316 15.1915 139.591 15.3864 138.897 15.7761C138.202 16.1658 137.593 16.7155 137.073 17.425C136.553 18.1345 136.174 18.939 135.929 19.8434C135.689 20.7527 135.639 21.5472 135.784 22.2367C135.934 22.9313 136.248 23.4609 136.733 23.8307C137.223 24.2054 137.847 24.3903 138.612 24.3903C139.219 24.3934 139.82 24.262 140.371 24.0055C140.915 23.76 141.399 23.3984 141.79 22.9463L141.44 24.2534H144.033L146.401 15.4208H143.803L143.795 15.4163ZM155.72 15.4163H148.178L147.651 17.385H152.039L146.238 22.3966L145.743 24.2454H153.527L154.054 22.2767H149.353L155.243 17.1901M162.358 19.7884C162.125 20.6578 161.778 21.3114 161.321 21.7371C160.864 22.1668 160.31 22.3816 159.66 22.3816C158.301 22.3816 157.854 21.5172 158.318 19.7884C158.548 18.929 158.896 18.2829 159.36 17.8477C159.825 17.411 160.388 17.1931 161.05 17.1931C161.7 17.1931 162.139 17.4095 162.364 17.8452C162.59 18.2799 162.588 18.928 162.358 19.7874M163.876 15.7486C163.279 15.3769 162.517 15.191 161.587 15.191C160.647 15.191 159.776 15.3759 158.974 15.7456C158.176 16.1131 157.475 16.6616 156.926 17.3475C156.361 18.0421 155.955 18.8565 155.705 19.7859C155.461 20.7118 155.431 21.5247 155.62 22.2208C155.81 22.9153 156.21 23.4499 156.81 23.8197C157.414 24.1924 158.184 24.3778 159.128 24.3778C160.057 24.3778 160.922 24.1909 161.716 23.8192C162.511 23.4454 163.19 22.9148 163.755 22.2153C164.32 21.5187 164.724 20.7063 164.974 19.7769C165.224 18.8475 165.254 18.0361 165.064 17.3385C164.874 16.644 164.479 16.1094 163.885 15.7371M173.134 17.7757L173.798 15.3724C173.573 15.2574 173.279 15.1975 172.909 15.1975C172.314 15.1975 171.745 15.3444 171.195 15.6422C170.722 15.895 170.32 16.2518 169.981 16.6985L170.325 15.4043L169.573 15.4073H167.724L165.34 24.2364H167.97L169.207 19.621C169.387 18.95 169.71 18.4218 170.178 18.0471C170.642 17.6708 171.222 17.4824 171.921 17.4824C172.351 17.4824 172.751 17.5809 173.131 17.7772M180.451 19.8309C180.226 20.6553 179.886 21.2849 179.421 21.7196C178.957 22.1563 178.397 22.3741 177.747 22.3741C177.098 22.3741 176.653 22.1543 176.418 21.7146C176.179 21.2724 176.174 20.6353 176.398 19.7979C176.623 18.961 176.968 18.3189 177.443 17.8742C177.917 17.426 178.477 17.2021 179.127 17.2021C179.766 17.2021 180.196 17.432 180.426 17.8967C180.656 18.3614 180.661 19.0059 180.44 19.8304M182.278 15.7631C181.791 15.3734 181.169 15.1785 180.415 15.1785C179.754 15.1785 179.124 15.3284 178.526 15.6312C177.929 15.9335 177.444 16.3457 177.072 16.8674L177.081 16.8074L177.522 15.4033H174.954L174.299 17.8467L174.279 17.9316L171.581 27.9969H174.214L175.573 22.9303C175.708 23.381 175.983 23.7347 176.403 23.9906C176.823 24.2454 177.341 24.3718 177.957 24.3718C178.721 24.3718 179.451 24.1869 180.143 23.8172C180.837 23.4464 181.437 22.9128 181.947 22.2233C182.456 21.5337 182.835 20.7343 183.076 19.8299C183.321 18.924 183.371 18.116 183.231 17.409C183.088 16.701 182.773 16.1528 182.286 15.7651M191.013 19.7949C190.788 20.6293 190.443 21.2689 189.979 21.7086C189.514 22.1513 188.954 22.3716 188.305 22.3716C187.64 22.3716 187.191 22.1568 186.956 21.7221C186.716 21.2874 186.711 20.6578 186.931 19.8334C187.151 19.0089 187.501 18.3644 187.986 17.8997C188.471 17.435 189.038 17.2031 189.688 17.2031C190.338 17.2031 190.778 17.428 191.008 17.8727C191.237 18.3189 191.239 18.96 191.015 19.7964L191.013 19.7949ZM192.187 15.4053L191.851 16.6595C191.706 16.2073 191.426 15.8475 191.012 15.5802C190.592 15.3134 190.077 15.1805 189.463 15.1805C188.708 15.1805 187.98 15.3754 187.284 15.7651C186.59 16.1548 185.98 16.7015 185.46 17.409C184.941 18.1165 184.561 18.923 184.316 19.8274C184.074 20.7353 184.026 21.5312 184.171 22.2237C184.318 22.9133 184.633 23.4459 185.121 23.8177C185.607 24.1874 186.235 24.3743 186.999 24.3743C187.614 24.3743 188.201 24.2464 188.758 23.9896C189.301 23.7428 189.784 23.3809 190.174 22.9288L189.824 24.2369H192.417L194.784 15.4078H192.191L192.187 15.4053ZM205.672 15.4083L205.673 15.4058H204.079C204.028 15.4058 203.983 15.4083 203.937 15.4093H203.11L202.685 15.9989L202.58 16.1389L202.535 16.2088L199.175 20.8897L198.481 15.4083H195.728L197.122 23.7377L194.044 27.9999H196.788L197.532 26.9441C197.553 26.9131 197.572 26.8871 197.597 26.8541L198.467 25.62L198.492 25.585L202.385 20.0637L205.668 15.4168L205.673 15.4138H205.672V15.4083Z" fill="#A4A4A4"/>
<rect width="100" height="36" transform="translate(216)" fill="white"/>
<path d="M247.15 24.0976C246.368 24.2344 245.572 24.2755 244.749 24.3847L242.237 17.0567V24.6993C241.455 24.7813 240.741 24.8906 240 25V11H242.086L244.941 18.9435V11H247.15V24.0976ZM251.473 16.127C252.324 16.127 253.628 16.0859 254.41 16.0859V18.2734C253.436 18.2734 252.297 18.2734 251.473 18.3144V21.5684C252.763 21.4864 254.053 21.3769 255.357 21.3359V23.4412L249.277 23.9198V11H255.357V13.1875H251.473V16.127ZM263.523 13.1876H261.245V23.25C260.504 23.25 259.762 23.25 259.049 23.2773V13.1876H256.771V11H263.523L263.523 13.1876ZM267.091 15.9766H270.097V18.1641H267.091V23.127H264.936V11H271.071V13.1875H267.091V15.9766ZM274.639 21.2129C275.888 21.2402 277.151 21.336 278.372 21.4043V23.5644C276.41 23.4413 274.447 23.3184 272.443 23.2773V11H274.639V21.2129ZM280.225 23.7148C280.925 23.7559 281.666 23.797 282.379 23.8789V11H280.225V23.7148ZM292 11L289.214 17.6582L292 25C291.176 24.8906 290.353 24.7402 289.53 24.6035L287.951 20.5567L286.346 24.2755C285.55 24.1386 284.781 24.0976 283.985 23.9882L286.812 17.5761L284.26 11H286.62L288.061 14.6777L289.598 11H292Z" fill="#A4A4A4"/>
<rect width="100" height="36" transform="translate(324)" fill="white"/>
<path d="M346.81 28L346.769 27.9666C345.601 26.5051 344.511 24.9831 343.504 23.4071C343.047 22.6444 342.75 22.049 342.807 21.8946C342.956 21.4959 345.615 21.276 346.434 21.6387C346.682 21.7493 346.677 21.8946 346.677 21.9795C346.677 22.3461 346.657 23.3287 346.657 23.3287C346.658 23.3771 346.667 23.4249 346.686 23.4696C346.705 23.5142 346.732 23.5548 346.767 23.5889C346.801 23.623 346.842 23.65 346.887 23.6683C346.932 23.6867 346.98 23.696 347.029 23.6959C347.077 23.6957 347.126 23.686 347.17 23.6673C347.215 23.6487 347.256 23.6214 347.29 23.587C347.324 23.5527 347.352 23.512 347.37 23.4672C347.388 23.4224 347.398 23.3745 347.398 23.3261L347.394 20.8785C347.394 20.665 347.16 20.6123 347.116 20.6046C346.688 20.602 345.82 20.5995 344.889 20.5995C342.832 20.5995 342.374 20.6831 342.024 20.4554C341.267 19.9628 340.031 16.6419 340.001 14.7744C339.959 12.1378 341.529 9.85618 343.737 8.72565C344.716 8.23401 345.8 7.98529 346.896 8.00067C347.993 8.01605 349.069 8.29507 350.034 8.81397C350.999 9.33287 351.824 10.0763 352.438 10.9808C353.052 11.8854 353.437 12.9244 353.561 14.0092L353.562 14.0182C353.633 14.8362 349.109 15.0085 348.214 14.7719C348.077 14.7346 348.042 14.5957 348.042 14.5352L348.037 12.1635C348.031 12.0696 347.99 11.9814 347.921 11.9169C347.852 11.8525 347.761 11.8167 347.666 11.8168C347.572 11.817 347.481 11.8531 347.412 11.9178C347.344 11.9825 347.302 12.0709 347.297 12.1648L347.305 15.3867C347.311 15.5899 347.482 15.6439 347.528 15.6529H350.335C351.834 15.6529 352.463 15.8252 352.881 16.1416C353.159 16.3538 353.268 16.759 353.173 17.2837C352.334 21.9615 347.011 27.7569 346.811 27.9987L346.81 28ZM361.245 17.0831C362.588 17.6554 363.42 18.2921 363.42 19.6876C363.42 21.1126 362.335 22.0335 360.657 22.0335C359.298 22.0335 358.206 21.42 357.662 20.3512L357.575 20.1776L359.174 19.2554L359.277 19.4265C359.639 20.0117 360.039 20.2625 360.624 20.2625C361.128 20.2625 361.465 20.04 361.465 19.7094C361.465 19.3429 361.22 19.2053 360.464 18.876L360.079 18.7114C359.054 18.2767 358.103 17.6709 358.103 16.2059C358.103 14.8889 359.117 13.9693 360.569 13.9693C361.668 13.9693 362.423 14.3937 362.941 15.3031L363.038 15.4715L361.487 16.4632L361.381 16.2728C361.123 15.8111 360.878 15.7198 360.569 15.7198C360.246 15.7198 360.037 15.8973 360.037 16.1725C360.037 16.4902 360.19 16.6291 360.86 16.9185L361.245 17.0831ZM372.561 17.3532L373.691 14.2188H375.629L372.757 22.1634H372.327L370.584 18.4426C370.498 18.2538 370.419 18.0616 370.348 17.8664C370.275 18.0619 370.195 18.2545 370.108 18.4439L368.299 22.1634H367.871L364.955 14.2188H367.024L368.165 17.3532C368.237 17.5525 368.312 17.7969 368.378 18.022C368.455 17.7892 368.548 17.5371 368.645 17.3339L370.144 14.1545H370.558L372.083 17.3339C372.18 17.5371 372.273 17.7892 372.35 18.0233C372.415 17.7969 372.491 17.5525 372.563 17.3532H372.561ZM377.887 21.9345V14.0568H379.843V21.9345H377.887ZM386.253 19.2876V17.5281H389.883V21.0586L389.809 21.1191C389.393 21.4586 388.292 22.0335 386.799 22.0335C384.284 22.0335 382.527 20.3744 382.527 17.9963C382.527 15.6632 384.222 13.9706 386.557 13.9706C387.843 13.9706 388.783 14.3307 389.436 15.0715L389.562 15.2169L388.23 16.53L388.086 16.3821C387.714 16.0002 387.327 15.7635 386.557 15.7635C385.361 15.7635 384.525 16.6818 384.525 17.9963C384.525 19.366 385.417 20.2509 386.799 20.2509C387.259 20.2509 387.736 20.1737 388.061 20.0464V19.2876H386.253ZM396.161 19.2876V17.5281H399.791V21.0586L399.717 21.1191C399.301 21.4586 398.201 22.0335 396.708 22.0335C394.192 22.0335 392.435 20.3744 392.435 17.9963C392.435 15.6632 394.13 13.9706 396.466 13.9706C397.751 13.9706 398.693 14.3307 399.344 15.0715L399.472 15.2169L398.139 16.53L397.994 16.3821C397.622 16.0002 397.236 15.7635 396.466 15.7635C395.269 15.7635 394.434 16.6818 394.434 17.9963C394.434 19.366 395.326 20.2509 396.708 20.2509C397.167 20.2509 397.644 20.1737 397.969 20.0464V19.2876H396.161ZM406.956 14.0568H409L406.194 19.2991V21.9358H404.228V19.4098L401.24 14.0555H403.421L404.803 16.5673C404.95 16.8413 405.105 17.2014 405.223 17.4947C405.335 17.204 405.484 16.8464 405.631 16.5699L406.956 14.0568Z" fill="#A4A4A4"/>
<rect width="100" height="36" transform="translate(432)" fill="white"/>
<path d="M453.064 11C454.746 11 456.157 11.8155 457.839 13.9561C458.167 14.3751 458.507 14.8514 458.858 15.3838C459.017 15.6102 459.178 15.8476 459.339 16.0967L459.827 16.8789H459.828L459.845 16.8955L461.068 18.9346C462.02 20.4464 462.614 21.3807 463.09 21.9414L463.107 21.958C463.396 22.2976 463.634 22.5015 463.905 22.6035L463.901 22.6143C464.097 22.6905 464.306 22.7226 464.517 22.7227C464.659 22.7227 464.801 22.7014 464.943 22.6592L464.942 22.6553C465.299 22.5534 465.57 22.3152 465.757 21.9756V21.958C465.978 21.5333 466.08 20.9556 466.08 20.2422V19.8516C466.012 17.2351 465.196 14.9752 464.007 13.752H463.99C463.396 13.1406 462.716 12.8008 462.003 12.8008C461.323 12.8008 460.712 13.1237 460.083 13.7861L460.065 13.8037L460.064 13.8027C459.691 14.1934 459.284 14.7204 458.876 15.3828C458.514 14.8505 458.167 14.3751 457.839 13.9561C458.156 13.5257 458.496 13.1122 458.858 12.7158L458.876 12.6992H458.877C459.828 11.6969 460.881 11 462.139 11C463.328 11 464.449 11.5607 465.384 12.4951L465.4 12.5117L465.69 12.8242C467.108 14.4499 468.038 17.0164 468.102 19.8516V20.0898C468.102 21.5164 467.813 22.6711 467.27 23.5205L467.271 23.5215C467.259 23.5215 467.253 23.5277 467.253 23.5391C467.242 23.5504 467.231 23.5675 467.22 23.5898C467.197 23.6125 467.179 23.6408 467.168 23.6748C466.862 24.0825 466.471 24.4223 466.013 24.6602C466.001 24.6603 465.991 24.6665 465.979 24.6777C465.946 24.689 465.917 24.6997 465.895 24.7109C465.819 24.7431 465.739 24.7754 465.653 24.8076L465.655 24.8125C465.264 24.9314 464.857 25 464.466 25C463.998 25 463.58 24.933 463.195 24.8018L463.192 24.8125C462.598 24.6086 462.054 24.2351 461.493 23.6406C461.493 23.6293 461.487 23.624 461.476 23.624C460.813 22.9104 460.134 21.8903 459.284 20.4971L458.418 19.0361V19.0342L458.417 19.0361V19.0195L458.247 18.748C458.002 18.3356 457.769 17.9523 457.548 17.5957C456.926 18.7057 456.023 20.2954 456.005 20.3271C453.796 24.1839 452.555 25 450.822 25C449.684 24.9999 448.767 24.5751 448.121 23.8105C448.116 23.8105 448.111 23.8093 448.108 23.8066L448.104 23.7939C447.629 23.2503 447.289 22.5026 447.136 21.6191C447.125 21.6191 447.119 21.6136 447.119 21.6025V21.6016L447.067 21.251C447.023 20.8986 447 20.5399 447 20.1748V20.1572C447 19.342 447.085 18.5268 447.238 17.7285V17.7109C447.527 16.2498 448.054 14.8905 448.768 13.7861V13.7695L448.976 13.4639C450.042 11.973 451.455 11.0166 453.047 11H453.064ZM493.502 14.6016C494.442 14.6016 495.252 14.8282 495.932 15.2812C496.623 15.723 497.149 16.3462 497.512 17.1504C497.885 17.9545 498.072 18.9001 498.072 19.9873V20.582H490.767C490.903 21.3862 491.231 22.0209 491.752 22.4854C492.273 22.9497 492.936 23.1816 493.74 23.1816C494.374 23.1816 494.923 23.0913 495.388 22.9102C495.852 22.7176 496.289 22.4281 496.696 22.043L497.835 23.4365C496.702 24.4785 495.309 24.9999 493.655 25C492.659 25 491.786 24.7787 491.038 24.3369C490.291 23.8952 489.679 23.2664 489.271 22.502C488.841 21.7204 488.626 20.8254 488.626 19.8174C488.626 18.7982 488.835 17.8976 489.254 17.1162C489.662 16.3347 490.234 15.7177 490.971 15.2646C491.707 14.8229 492.551 14.6016 493.502 14.6016ZM511.359 14.6016C512.039 14.6016 512.651 14.738 513.194 15.0098C513.721 15.2646 514.179 15.6387 514.536 16.1143V14.8398H516.575V24.7617H514.536V23.3691C514.179 23.8787 513.704 24.2864 513.16 24.5752C512.594 24.8583 511.954 25 511.24 25C510.368 25 509.592 24.7734 508.912 24.3203C508.244 23.8786 507.717 23.2669 507.332 22.4854C506.936 21.7038 506.737 20.8088 506.737 19.8008C506.737 18.7815 506.936 17.8811 507.332 17.0996C507.728 16.3295 508.272 15.7177 508.963 15.2646C509.665 14.8229 510.465 14.6016 511.359 14.6016ZM502.745 14.8398H505.752V16.6064H502.745V21.0586C502.745 21.8059 502.875 22.3329 503.136 22.6387C503.385 22.9556 503.815 23.1142 504.427 23.1143C504.665 23.1256 504.897 23.1193 505.123 23.0967C505.316 23.074 505.525 23.0404 505.752 22.9951V24.7451C505.491 24.8131 505.225 24.8697 504.953 24.915C504.647 24.9603 504.342 24.9834 504.036 24.9834C501.794 24.9834 500.672 23.7598 500.672 21.3135V16.6064H498.701V14.8398H500.672V11.9346H502.745V14.8398ZM479.655 19.5459L484.141 11.459H486.724V24.7627H484.565V14.5684L480.641 21.6191H478.619L474.694 14.5684V24.7627H472.536V11.459H475.17L479.655 19.5459ZM511.784 16.5049C510.89 16.5049 510.181 16.7989 509.66 17.3877C509.128 17.988 508.861 18.7927 508.861 19.8008C508.861 20.8202 509.116 21.6302 509.626 22.2305C510.136 22.8307 510.827 23.1309 511.699 23.1309C512.333 23.1308 512.905 22.9608 513.415 22.6211C513.908 22.3153 514.281 21.8395 514.485 21.2959V18.3223C514.27 17.7562 513.925 17.3089 513.449 16.9805C512.962 16.6634 512.407 16.505 511.784 16.5049ZM452.856 13.3008C452.068 13.3714 451.345 13.9647 450.756 14.8564C450.161 15.7569 449.702 16.9465 449.464 18.2207V18.2549C449.339 18.9005 449.276 19.5574 449.276 20.2256V20.3789L449.307 20.7354C449.321 20.8541 449.339 20.973 449.361 21.0918V21.1094C449.446 21.6189 449.633 22.0094 449.871 22.2812H449.888C450.159 22.57 450.5 22.7236 450.907 22.7236C451.91 22.7236 452.538 22.0944 454.322 19.291C454.326 19.2855 455.139 17.9993 456.475 15.9531C455.063 13.9338 454.139 13.2941 453.031 13.2939H453.015L452.856 13.3008ZM493.451 16.4199C492.749 16.4199 492.154 16.6518 491.667 17.1162C491.191 17.5806 490.891 18.2092 490.767 19.002H496C495.932 18.198 495.677 17.5639 495.235 17.0996C494.782 16.6466 494.187 16.42 493.451 16.4199Z" fill="#A4A4A4"/>
</svg>
