<svg width="26" height="26" viewBox="0 0 26 26" fill="none" xmlns="http://www.w3.org/2000/svg">
<path d="M5.375 8.875L10.1848 11.8127C12.0962 12.8958 12.9038 12.8958 14.8152 11.8127L19.625 8.875" stroke="black" stroke-width="1.5" stroke-linecap="round" stroke-linejoin="round"/>
<path d="M5.01183 14.4817C5.06086 16.7809 5.08537 17.9304 5.93372 18.7821C6.78206 19.6336 7.96275 19.6632 10.3241 19.7226C11.7795 19.7592 13.2205 19.7592 14.6759 19.7226C17.0373 19.6632 18.2179 19.6336 19.0663 18.7821C19.9147 17.9304 19.9392 16.7809 19.9881 14.4817C20.004 13.7424 20.004 13.0076 19.9881 12.2683C19.9392 9.96915 19.9147 8.81957 19.0663 7.968C18.2179 7.11642 17.0373 7.08676 14.6759 7.02743C13.2205 6.99086 11.7795 6.99086 10.3241 7.02742C7.96275 7.08675 6.78206 7.11641 5.93371 7.96799C5.08537 8.81956 5.06085 9.96914 5.01182 12.2683C4.99605 13.0076 4.99606 13.7424 5.01183 14.4817Z" stroke="black" stroke-width="1.5" stroke-linecap="round" stroke-linejoin="round"/>
</svg>
