<svg width="174" height="48" viewBox="0 0 174 48" fill="none" xmlns="http://www.w3.org/2000/svg">
<path fill-rule="evenodd" clip-rule="evenodd" d="M51.2702 24H51.2011L51.2565 23.9793L51.2702 24Z" fill="#1A1A1A"/>
<path d="M17.4491 17.4278V17.2336C10.4571 19.6911 5.00323 22.2972 2.16393 24.5433C1.3408 25.1944 0.737422 25.8153 0.380006 26.3935C0.0482737 26.9301 -0.0715716 27.4301 0.0414406 27.8833C0.154453 28.3366 0.494969 28.7217 1.03982 29.0399C2.14859 29.6872 4.10357 30.057 6.7095 30.1584C6.58689 29.5993 6.52228 29.0186 6.52228 28.4228C6.52228 27.453 6.69343 26.5232 7.00718 25.662C6.68375 25.4457 6.4717 25.1933 6.38124 24.9044L6.37902 24.8972L6.37709 24.8908C6.37236 24.875 6.36798 24.859 6.36398 24.8429C5.90463 23.0006 10.3591 20.1716 17.4491 17.4278Z" fill="#1A1A1A"/>
<path d="M11.1334 26.6046C10.847 27.1476 10.6849 27.7662 10.6849 28.4228C10.6849 29.0275 10.8225 29.6002 11.068 30.1111C11.6975 31.421 13.0368 32.3252 14.5873 32.3252C16.4025 32.3252 17.9282 31.0859 18.3645 29.4073C18.4463 29.0928 18.4898 28.7629 18.4898 28.4228C18.4898 27.6713 18.2774 26.9695 17.9093 26.374C17.2218 25.2615 15.9911 24.5203 14.5873 24.5203C13.0886 24.5203 11.7872 25.3652 11.1334 26.6046Z" fill="#1A1A1A"/>
<path fill-rule="evenodd" clip-rule="evenodd" d="M25.254 8.39024H17.4491V17.2336V17.4278V20.8802C19.6921 21.7317 21.4566 23.555 22.2285 25.8359C22.5034 26.6479 22.6524 27.5179 22.6524 28.4228C22.6524 28.534 22.6501 28.6448 22.6456 28.755C23.5008 28.6101 24.3708 28.4545 25.254 28.2881C27.7622 27.8156 30.3769 27.2566 33.0589 26.6129C33.5478 26.4956 34.0389 26.3755 34.532 26.2525C34.9508 26.1481 35.3673 26.0426 35.7815 25.936C37.5203 25.4887 39.2176 25.0229 40.8637 24.5433C41.4789 24.364 42.087 24.1829 42.6874 24C44.7815 23.3622 46.7824 22.7038 48.6686 22.035C49.0199 21.9105 49.3673 21.7855 49.7105 21.6603C52.1991 20.7524 54.4712 19.829 56.4735 18.9152C61.1506 16.7808 64.356 14.6991 65.4125 12.99C65.7442 12.4533 65.864 11.9534 65.751 11.5001C65.638 11.0468 65.2975 10.6617 64.7526 10.3436C64.1656 10.0008 63.3414 9.73591 62.3089 9.54743C60.7859 9.26939 58.8097 9.15769 56.4735 9.20793V8.39024H48.6686V18.7994C48.4435 18.89 48.2154 18.9806 47.9844 19.0712L40.8637 8.39024H33.0589V21.3984L25.254 8.39024ZM58.7532 11.8379L58.7521 11.8323C58.7488 11.8161 58.7452 11.7999 58.7412 11.7838C58.5749 11.1169 57.7792 10.6381 56.4735 10.3416V14.8511C58.0825 13.7176 58.9117 12.6836 58.7548 11.8462L58.7532 11.8379Z" fill="#1A1A1A"/>
<path d="M27.8556 39.6098H33.0589V29.4163C30.3727 30.0497 27.7577 30.5973 25.254 31.0572C24.3113 31.2304 23.3844 31.3911 22.4753 31.5393L27.8556 39.6098Z" fill="#1A1A1A"/>
<path d="M43.9857 39.6098H48.6686L56.4735 24V21.8587C54.8836 22.5653 53.1364 23.276 51.2565 23.9793L51.2702 24H51.2011C50.3814 24.3062 49.5366 24.6109 48.6686 24.9133C46.234 25.7614 43.6176 26.5908 40.8637 27.3804C39.6814 27.7194 38.4736 28.0511 37.2441 28.3738L43.9857 39.6098Z" fill="#1A1A1A"/>
<path d="M89.7893 8.31384L86.3545 20.7977H83.0941L82.1177 16.5957C81.9433 15.8867 81.769 14.9684 81.5946 13.8409C81.4784 13.1319 81.3796 12.5681 81.2982 12.1497C81.2401 12.51 81.1529 13.0621 81.0367 13.806C80.9088 14.6894 80.7403 15.6019 80.531 16.5434L79.5895 20.7977H76.2768L72.8768 8.31384H76.1547L77.0962 12.3414C77.4682 13.9804 77.7588 15.6774 77.968 17.4326C78.2005 15.6309 78.4911 13.9513 78.8398 12.3938L79.7813 8.31384H82.8848L83.7566 12.1497C84.1634 13.9629 84.4715 15.7239 84.6807 17.4326C84.9248 15.4682 85.2502 13.6433 85.6571 11.9579L86.5114 8.31384H89.7893Z" fill="#1A1A1A"/>
<path d="M97.3017 8.31384L101.974 20.7977H98.5919L97.7899 18.5136H93.4659L92.6638 20.7977H89.3162L93.9889 8.31384H97.3017ZM97.0402 16.1773L96.4473 14.486C96.0986 13.4631 95.8313 12.5274 95.6453 11.6789C95.4128 12.5855 95.1281 13.5329 94.791 14.5209L94.2156 16.1773H97.0402Z" fill="#1A1A1A"/>
<path d="M111.822 17.9906V20.7977H102.703V8.31384H105.963V17.9906H111.822Z" fill="#1A1A1A"/>
<path d="M122.234 17.9906V20.7977H113.115V8.31384H116.375V17.9906H122.234Z" fill="#1A1A1A"/>
<path d="M132.046 8C133.987 8 135.533 8.6858 136.684 10.0574C137.672 11.2546 138.166 12.7541 138.166 14.5558C138.166 16.6364 137.527 18.287 136.248 19.5074C135.132 20.5768 133.732 21.1115 132.046 21.1115C130.07 21.1115 128.501 20.4257 127.339 19.0541C126.339 17.8685 125.839 16.3691 125.839 14.5558C125.839 12.4751 126.455 10.8478 127.687 9.67381C128.873 8.55794 130.326 8 132.046 8ZM132.029 10.6851C131.087 10.6851 130.355 11.0803 129.832 11.8707C129.379 12.5449 129.152 13.4341 129.152 14.5383C129.152 15.8286 129.442 16.8224 130.024 17.5198C130.535 18.1242 131.209 18.4264 132.046 18.4264C132.93 18.4264 133.621 18.0835 134.121 17.3977C134.621 16.7003 134.871 15.7297 134.871 14.486C134.871 13.219 134.58 12.2485 133.999 11.5743C133.499 10.9815 132.842 10.6851 132.029 10.6851Z" fill="#1A1A1A"/>
<path d="M148.808 8.31384V10.9989H142.845V13.4399H148.006V15.9855H142.845V20.7977H139.584V8.31384H148.808Z" fill="#1A1A1A"/>
<path d="M62.6705 27.2023H67.814C69.4646 27.2023 70.656 27.4522 71.3883 27.9521C72.5274 28.7192 73.097 29.8816 73.097 31.4392C73.097 32.7061 72.6669 33.729 71.8067 34.5078C71.0628 35.182 69.9644 35.5191 68.5114 35.5191H65.931V39.6862H62.6705V27.2023ZM65.931 29.8874V32.956H68.0755C69.3076 32.956 69.9237 32.4446 69.9237 31.4217C69.9237 30.4221 69.267 29.9165 67.9535 29.9048L65.931 29.8874Z" fill="#1A1A1A"/>
<path d="M80.0264 26.8885C81.9675 26.8885 83.5135 27.5743 84.6642 28.9459C85.6522 30.1431 86.1462 31.6426 86.1462 33.4442C86.1462 35.5249 85.5069 37.1754 84.2283 38.3959C83.1124 39.4653 81.7118 40 80.0264 40C78.0503 40 76.4811 39.3142 75.3188 37.9426C74.3191 36.757 73.8193 35.2575 73.8193 33.4442C73.8193 31.3636 74.4354 29.7363 75.6675 28.5623C76.8531 27.4464 78.306 26.8885 80.0264 26.8885ZM80.0089 29.5736C79.0674 29.5736 78.3351 29.9688 77.812 30.7592C77.3587 31.4333 77.1321 32.3226 77.1321 33.4268C77.1321 34.717 77.4226 35.7109 78.0038 36.4083C78.5153 37.0127 79.1894 37.3149 80.0264 37.3149C80.9098 37.3149 81.6014 36.972 82.1012 36.2862C82.601 35.5888 82.8509 34.6182 82.8509 33.3745C82.8509 32.1075 82.5603 31.1369 81.9791 30.4628C81.4793 29.87 80.8226 29.5736 80.0089 29.5736Z" fill="#1A1A1A"/>
<path d="M87.5296 27.2023H93.6844C94.9513 27.2023 95.9161 27.3999 96.5787 27.7951C97.7062 28.4577 98.2699 29.4631 98.2699 30.8115C98.2699 31.5089 98.0956 32.1308 97.7468 32.6771C97.3981 33.2234 96.9274 33.6186 96.3346 33.8627C96.8576 34.0022 97.2761 34.316 97.5899 34.8042C97.7991 35.1297 97.9386 35.4668 98.0084 35.8155C98.0897 36.1526 98.1827 36.9255 98.2873 38.1344C98.3687 38.9016 98.4733 39.3781 98.6012 39.5641L98.7058 39.6862H95.3756C95.271 39.4421 95.1489 38.5703 95.0095 37.0708C94.9165 36.3153 94.7072 35.7922 94.3818 35.5016C94.0563 35.1994 93.5274 35.0483 92.7952 35.0483H90.7901V39.6862H87.5296V27.2023ZM90.7901 29.7653V32.7119H93.0916C94.405 32.7119 95.0618 32.2121 95.0618 31.2125C95.0618 30.2477 94.3934 29.7653 93.0567 29.7653H90.7901Z" fill="#1A1A1A"/>
<path d="M110.109 27.2023V30.0094H106.378V39.6862H103.135V30.0094H99.4211V27.2023H110.109Z" fill="#1A1A1A"/>
<path d="M120.456 27.2023V29.8874H114.493V32.3284H119.654V34.874H114.493V39.6862H111.233V27.2023H120.456Z" fill="#1A1A1A"/>
<path d="M127.243 26.8885C129.184 26.8885 130.73 27.5743 131.881 28.9459C132.869 30.1431 133.363 31.6426 133.363 33.4442C133.363 35.5249 132.724 37.1754 131.445 38.3959C130.329 39.4653 128.929 40 127.243 40C125.267 40 123.698 39.3142 122.536 37.9426C121.536 36.757 121.036 35.2575 121.036 33.4442C121.036 31.3636 121.652 29.7363 122.884 28.5623C124.07 27.4464 125.523 26.8885 127.243 26.8885ZM127.226 29.5736C126.284 29.5736 125.552 29.9688 125.029 30.7592C124.576 31.4333 124.349 32.3226 124.349 33.4268C124.349 34.717 124.64 35.7109 125.221 36.4083C125.732 37.0127 126.406 37.3149 127.243 37.3149C128.127 37.3149 128.818 36.972 129.318 36.2862C129.818 35.5888 130.068 34.6182 130.068 33.3745C130.068 32.1075 129.777 31.1369 129.196 30.4628C128.696 29.87 128.039 29.5736 127.226 29.5736Z" fill="#1A1A1A"/>
<path d="M143.9 36.879V39.6862H134.781V27.2023H138.042V36.879H143.9Z" fill="#1A1A1A"/>
<path d="M148.454 27.2023V39.6862H145.194V27.2023H148.454Z" fill="#1A1A1A"/>
<path d="M156.062 26.8885C158.003 26.8885 159.549 27.5743 160.7 28.9459C161.688 30.1431 162.182 31.6426 162.182 33.4442C162.182 35.5249 161.543 37.1754 160.264 38.3959C159.148 39.4653 157.748 40 156.062 40C154.086 40 152.517 39.3142 151.355 37.9426C150.355 36.757 149.855 35.2575 149.855 33.4442C149.855 31.3636 150.471 29.7363 151.703 28.5623C152.889 27.4464 154.342 26.8885 156.062 26.8885ZM156.045 29.5736C155.103 29.5736 154.371 29.9688 153.848 30.7592C153.395 31.4333 153.168 32.3226 153.168 33.4268C153.168 34.717 153.459 35.7109 154.04 36.4083C154.551 37.0127 155.225 37.3149 156.062 37.3149C156.946 37.3149 157.637 36.972 158.137 36.2862C158.637 35.5888 158.887 34.6182 158.887 33.3745C158.887 32.1075 158.596 31.1369 158.015 30.4628C157.515 29.87 156.858 29.5736 156.045 29.5736Z" fill="#1A1A1A"/>
<path d="M173.155 30.951H170.052C170.005 29.9281 169.337 29.4166 168.046 29.4166C166.919 29.4166 166.355 29.7828 166.355 30.5151C166.355 30.8522 166.506 31.0963 166.809 31.2474C167.064 31.3752 167.884 31.6135 169.267 31.9622C170.58 32.2993 171.534 32.6538 172.126 33.0258C173.149 33.6535 173.661 34.595 173.661 35.8503C173.661 37.2219 173.12 38.2797 172.039 39.0236C171.098 39.6745 169.86 40 168.325 40C166.466 40 165.048 39.5525 164.071 38.6575C163.211 37.8787 162.769 36.8209 162.746 35.4842H166.024C166.094 36.8093 166.902 37.4718 168.447 37.4718C169.714 37.4718 170.348 37.0476 170.348 36.1991C170.348 35.8039 170.179 35.5133 169.842 35.3273C169.517 35.1297 168.697 34.8449 167.384 34.4729C165.791 34.0196 164.722 33.5605 164.176 33.0955C163.536 32.5492 163.217 31.7588 163.217 30.7243C163.217 29.4922 163.728 28.5216 164.751 27.8126C165.646 27.1965 166.791 26.8885 168.186 26.8885C169.848 26.8885 171.115 27.2895 171.987 28.0915C172.742 28.789 173.132 29.7421 173.155 30.951Z" fill="#1A1A1A"/>
</svg>
